<?xml version="1.0" standalone="no"?>
<!DOCTYPE svg PUBLIC "-//W3C//DTD SVG 20010904//EN"
 "http://www.w3.org/TR/2001/REC-SVG-20010904/DTD/svg10.dtd">
<svg version="1.0" xmlns="http://www.w3.org/2000/svg"
 width="145.000000pt" height="145.000000pt" viewBox="0 0 145.000000 145.000000"
 preserveAspectRatio="xMidYMid meet">
<metadata>
Created by potrace 1.14, written by Peter Selinger 2001-2017
</metadata>
<g transform="translate(0.000000,145.000000) scale(0.100000,-0.100000)"
fill="#000000" stroke="none">
<path d="M575 1379 c-128 -24 -204 -62 -291 -147 -8 -7 -25 -32 -38 -55 -81
-140 -64 -332 40 -450 50 -58 167 -114 274 -132 19 -3 48 -8 63 -11 16 -3 38
-7 50 -9 12 -1 49 -7 82 -13 33 -6 72 -13 87 -16 141 -24 152 -155 17 -195
-57 -17 -176 -12 -237 11 -63 24 -118 82 -133 143 -6 25 -16 45 -23 46 -21 1
-281 -7 -298 -10 -3 -1 -4 -20 -2 -43 24 -217 172 -365 414 -414 151 -30 320
-21 441 25 179 69 271 191 270 361 -1 160 -65 269 -195 337 -47 24 -128 52
-171 58 -11 2 -33 6 -50 9 -16 3 -43 8 -60 11 -16 3 -40 7 -51 9 -12 2 -39 7
-60 10 -108 18 -149 37 -164 79 -15 43 9 91 59 116 47 24 149 28 215 9 56 -17
113 -76 127 -132 l11 -45 152 2 c86 1 154 6 158 12 7 9 3 60 -8 97 -3 9 -6 25
-8 35 -9 46 -53 120 -100 168 -120 123 -347 176 -571 134z"/>
</g>
</svg>
